<svg viewBox="0 0 48 48" xmlns="http://www.w3.org/2000/svg" xmlns:xlink="http://www.w3.org/1999/xlink" width="48" height="48">
<defs>



 <path fill="#231f20" id="i-511" d="M31,39.46C34.689,34.5,43,23.09,43,21c0-0.74-0.01-1.3-4.49-1.57l4.369-7.949l-1.76-0.961l-4.84,8.811 c-1.66-0.051-3.709-0.08-6.279-0.08c-3.031,0-5.361,0.041-7.141,0.109c-0.48-3.379-2.32-5.77-4.859-6.26L18.029,0H10.09l-0.08,13.1 C7.049,13.67,5,16.82,5,21v27h18V30.641c1.559,2.26,3.529,5.06,6,8.539V46h-4v2h10v-2h-4V39.46z M37.42,21.4 c1.49,0.07,2.629,0.149,3.32,0.24c-0.451,0.92-1.432,2.51-2.74,4.48V26h-3.111L37.42,21.4z M7,25h7v10H7V25z M21,46H7v-9h9V23H7v-2 c0-3.48,1.68-6,4-6h0.99l0.079-13h3.96L16,15h1c1.949,0,3.42,1.77,3.859,4.471C17,19.75,17,20.3,17,21c0,0.25,0,0.779,4,6.71V46z M22.27,26c-0.46-0.68-0.88-1.32-1.27-1.9c-0.681-1.029-1.221-1.879-1.58-2.479c0.41-0.051,0.939-0.102,1.58-0.141 c0.58-0.041,1.25-0.07,2-0.1c1.85-0.081,4.209-0.131,7-0.131c1.949,0,3.68,0.02,5.189,0.07L32.609,26H23H22.27z M23.629,28h7.881 l-1.391,2.52l1.76,0.961l1.91-3.48h2.951c-1.92,2.811-4.271,6.109-6.621,9.3C28.109,34.46,25.699,31.02,23.629,28z"/> 
</defs>

<use x="0" y="0" xlink:href="#i-511"/>

</svg>