<svg viewBox="0 0 48 48" xmlns="http://www.w3.org/2000/svg" xmlns:xlink="http://www.w3.org/1999/xlink" width="48" height="48">
<defs>



 <path fill="#231f20" id="i-83" d="M22.928,3.225c-0.233-0.782,0.415-1.353,1.406-2.051C26,0,26,0,26,0s0,0.041,0,2c0,0.153-0.1,0.905-0.646,1.481 c-0.329,0.345-0.771,0.528-1.281,0.528C23.401,4.009,23.041,3.604,22.928,3.225z M36.189,4.009c0.51,0,0.953-0.183,1.281-0.528 C38.018,2.905,38,2.111,38,1.958C38,0,38,0,38,0s0,0-1.55,1.174c-0.966,0.731-1.64,1.269-1.405,2.05 C35.158,3.604,35.519,4.009,36.189,4.009z M12.189,4.009c0.51,0,0.952-0.183,1.28-0.528C14.018,2.905,13.998,2.153,13.998,2 C14,0,14,0,14,0s0,0-1.55,1.174c-0.966,0.731-1.64,1.269-1.405,2.05C11.158,3.604,11.519,4.009,12.189,4.009z M48,28.909V32 c0,1.965-0.136,2.977-0.91,3.415c-0.211,0.12-0.419,0.166-0.616,0.166c-0.169,0-0.326-0.039-0.474-0.089V48H2V34.896 c-0.932-0.2-2-0.823-2-2.896c0-2.344,0-5,2-5h4v-8.055c-0.805-0.098-1.572-0.36-1.933-1.053c-0.509-0.979,0.19-1.977,0.652-2.637 c0.099-0.141,0.241-0.346,0.296-0.448c0.066-0.719-0.259-1.339-0.547-1.887c-0.311-0.591-0.696-1.325-0.258-2.05 C4.65,10.143,5.566,10,7,10h4V4.986h2V10h10V4.986h2V10h10V4.986h2V10h4c0.982,0,2.375,0.115,3.124,1.117 c0.783,1.047,0.393,2.375,0.047,3.547c-0.202,0.687-0.454,1.541-0.28,1.882c0.236,0.451,0.227,0.96-0.032,1.386 c-0.373,0.615-1.162,0.879-1.858,0.99V27h4C46.806,27,48,27.802,48,28.909z M8,27h32v-7.761c-0.305,0.147-0.599,0.353-0.927,0.581 C38.318,20.346,37.38,21,36,21c-1.498,0-2.21-0.762-2.729-1.316C32.846,19.229,32.632,19,32,19c-0.63,0-0.844,0.229-1.269,0.683 C30.212,20.238,29.5,21,28,21c-1.492,0-2.206-0.76-2.728-1.314C24.844,19.229,24.628,19,24,19c-0.627,0-0.842,0.229-1.271,0.685 C22.208,20.239,21.493,21,20,21c-1.492,0-2.206-0.76-2.728-1.314C16.844,19.229,16.629,19,16,19c-0.627,0-0.842,0.229-1.271,0.685 C14.208,20.239,13.493,21,12,21c-1.373,0-2.313-0.654-3.068-1.179C8.602,19.592,8.307,19.388,8,19.24l0,0V27z M6.992,15.127 c-0.056,0.448-0.324,0.832-0.635,1.275c-0.096,0.137-0.242,0.347-0.347,0.523C6.201,16.964,6.512,17,7,17 c1.374,0,2.315,0.653,3.072,1.179C10.732,18.637,11.254,19,12,19c0.629,0,0.844-0.229,1.272-0.686C13.794,17.76,14.508,17,16,17 c1.493,0,2.208,0.76,2.729,1.314C19.158,18.771,19.373,19,20,19c0.629,0,0.844-0.229,1.272-0.686C21.794,17.76,22.508,17,24,17 c1.493,0,2.208,0.76,2.729,1.314C27.158,18.771,27.373,19,28,19c0.632,0,0.846-0.229,1.271-0.684C29.79,17.761,30.502,17,32,17 c1.5,0,2.212,0.762,2.731,1.316C35.156,18.771,35.37,19,36,19c0.752,0,1.271-0.363,1.93-0.821C38.684,17.654,39.622,17,41,17 c0.367,0,0.685-0.047,0.909-0.101c-0.212-0.915,0.08-1.907,0.344-2.8c0.181-0.613,0.453-1.539,0.27-1.785 C42.498,12.283,42.251,12,41,12H7c-0.318,0-0.561,0.01-0.744,0.022C6.625,12.726,7.164,13.777,6.992,15.127z M44,35.242 c-0.305,0.148-0.602,0.353-0.933,0.58c-0.76,0.524-1.706,1.177-3.067,1.177c-1.479,0-2.199-0.757-2.725-1.311 C36.84,35.23,36.621,35,36,35s-0.84,0.23-1.275,0.688c-0.525,0.554-1.246,1.311-2.725,1.311c-1.511,0-2.205-0.813-2.665-1.35 C28.954,35.203,28.78,35,28.191,35c-0.651,0-0.938,0.272-1.412,0.725c-0.565,0.537-1.34,1.274-2.789,1.274 c-1.48,0-2.197-0.759-2.722-1.313C20.836,35.229,20.619,35,20,35c-0.621,0-0.84,0.23-1.275,0.688 c-0.525,0.554-1.246,1.311-2.725,1.311s-2.199-0.757-2.725-1.311C12.84,35.23,12.621,35,12,35s-0.84,0.23-1.275,0.688 C10.199,36.242,9.479,36.999,8,36.999c-1.361,0-2.307-0.652-3.067-1.177C4.602,35.595,4.305,35.391,4,35.242V46h40V35.242z M46,29.059c-0.029-0.021-0.064-0.043-0.095-0.059H2.215C2,29.545,2,31.121,2,32c0,0.962,0.078,0.965,1.037,1v0.002 c1.34,0.013,2.277,0.655,3.03,1.174c0.667,0.46,1.194,0.823,1.933,0.823c0.621,0,0.84-0.229,1.275-0.688 C9.801,33.758,10.521,33,12,33s2.199,0.758,2.725,1.311c0.436,0.459,0.654,0.688,1.275,0.688s0.84-0.229,1.275-0.688 C17.801,33.758,18.521,33,20,33c1.48,0,2.197,0.758,2.722,1.313c0.433,0.457,0.649,0.687,1.269,0.687 c0.649,0,0.936-0.272,1.41-0.724C25.966,33.737,26.74,33,28.191,33c1.51,0,2.204,0.813,2.664,1.35 c0.381,0.445,0.556,0.649,1.145,0.649c0.621,0,0.84-0.229,1.275-0.688C33.801,33.758,34.521,33,36,33s2.199,0.758,2.725,1.311 c0.436,0.459,0.654,0.688,1.275,0.688c0.738,0,1.266-0.363,1.933-0.823C42.692,33.652,43.639,33,45,33h0.978 C45.991,32.742,46,32.415,46,32V29.059z"/> 
</defs>

<use x="0" y="0" xlink:href="#i-83"/>

</svg>