<svg viewBox="0 0 48 48" xmlns="http://www.w3.org/2000/svg" xmlns:xlink="http://www.w3.org/1999/xlink" width="48" height="48">
<defs>



 <path fill="#231f20" id="i-1188" d="M4.586,37L11,43.414L19.414,35L13,28.586L4.586,37z M11,40.586L7.414,37L13,31.414L16.586,35L11,40.586z M44,10h4v2h-4V10z M34,8h-4V6h4V8z M34.293,5.707l-3-3l1.414-1.414l3,3L34.293,5.707z M33.707,9.293c-0.391-0.391-1.023-0.391-1.414,0 s-0.391,1.023,0,1.414l0.287,0.287c-8.529,8.415-11.538,9.295-13.739,9.925c-1.634,0.468-3.046,0.872-5.548,3.374l-12,12 C0.778,36.808,0,37.586,0,39c0,1.417,0.778,2.193,1.293,2.707l5,5C6.808,47.223,7.586,48,9,48s2.192-0.777,2.707-1.293l12-12 c2.502-2.502,2.907-3.914,3.375-5.549c0.631-2.201,1.511-5.21,9.925-13.738l0.287,0.287C37.488,15.902,37.744,16,38,16 s0.512-0.098,0.707-0.293c0.391-0.391,0.391-1.023,0-1.414L33.707,9.293z M25.159,28.608c-0.425,1.479-0.729,2.548-2.866,4.685 l-12,12C9.828,45.758,9.56,46,9,46s-0.828-0.242-1.293-0.707l-5-5.001C2.255,39.842,2,39.561,2,39c0-0.56,0.243-0.828,0.707-1.293 l12-12c2.137-2.136,3.206-2.441,4.685-2.865c0.576-0.164,1.188-0.344,1.884-0.615l0.9,3.598l3.6,0.9 C25.503,27.422,25.324,28.033,25.159,28.608z M26.645,24.881l-2.82-0.705l-0.705-2.82c1.439-0.791,3.248-2.033,5.693-4.129 l1.962,1.961C28.679,21.633,27.436,23.441,26.645,24.881z M32.1,17.686L30.314,15.9c1.104-0.997,2.329-2.158,3.68-3.492l1.598,1.598 C34.258,15.356,33.097,16.582,32.1,17.686z M38,4h-2V0h2V4z M43.707,12.293l3,3l-1.414,1.414l-3-3L43.707,12.293z M43.5,6.914 l0.793,0.793C44.488,7.902,44.744,8,45,8c0.252,0,0.505-0.095,0.699-0.285l2-1.953c0.19-0.188,0.299-0.443,0.301-0.71 s-0.104-0.524-0.293-0.713l-4.046-4.046C43.474,0.105,43.22,0,42.954,0c-0.002,0-0.004,0-0.006,0 c-0.268,0.002-0.522,0.109-0.709,0.301l-1.954,2c-0.383,0.393-0.38,1.02,0.008,1.406L41.086,4.5l-0.793,0.793 c-0.391,0.391-0.391,1.023,0,1.414l1,1C41.488,7.902,41.744,8,42,8s0.512-0.098,0.707-0.293L43.5,6.914z M42.962,2.422l2.615,2.615 l-0.569,0.557l-2.602-2.602L42.962,2.422z M40,14h2v4h-2V14z M18.998,26C17.346,26.002,16,27.348,16,29c0,1.654,1.346,3,3,3 c1.654,0,3-1.346,3-3C21.999,27.346,20.653,26,18.998,26z M19,30c-0.552,0-1-0.449-1-1s0.449-1,0.999-1 C19.551,28,20,28.449,20,29.001C20,29.552,19.552,30,19,30z"/> 
</defs>

<use x="0" y="0" xlink:href="#i-1188"/>

</svg>