<svg viewBox="0 0 48 48" xmlns="http://www.w3.org/2000/svg" xmlns:xlink="http://www.w3.org/1999/xlink" width="48" height="48">
<defs>



 <path fill="#4fdb94" id="i-1005" d="M23.974,9.611l-5.443,5.443l5.771,4.971L8,19.998V28h16.297l-5.768,4.943l5.445,5.445L39.47,24L23.974,9.611z M21.471,33.057L29.703,26H10v-3.998l19.698,0.033l-8.229-7.09l2.557-2.557L36.53,24L24.025,35.611L21.471,33.057z M24,2 C11.869,2,2,11.869,2,24s9.869,22,22,22s22-9.869,22-22S36.131,2,24,2z M24,44C12.972,44,4,35.027,4,24S12.972,4,24,4 c11.028,0,20,8.973,20,20S35.028,44,24,44z"/> 
</defs>

<use x="0" y="0" xlink:href="#i-1005"/>

</svg>