<svg viewBox="0 0 48 48" xmlns="http://www.w3.org/2000/svg" xmlns:xlink="http://www.w3.org/1999/xlink" width="48" height="48">
<defs>



 <path fill="#4fdb94" id="i-1853" d="M42.896,36.781c-3.033-2.571-7.025-5.961-9.861-8.996c0.365-0.491,0.664-0.948,0.859-1.34l-1.058-0.528 c1.376-2.5,2.164-5.367,2.164-8.416C35.001,7.851,27.15,0,17.5,0C7.851,0,0,7.851,0,17.501s7.851,17.502,17.5,17.502 c3.051,0,5.92-0.788,8.42-2.166l0.527,1.056c0.391-0.195,0.846-0.492,1.336-0.856c3.034,2.835,6.424,6.827,8.994,9.86 C40.502,47.287,41.167,48,41.999,48c0.002,0,0.004,0,0.006,0c1.567-0.006,5.993-4.433,5.995-5.995 C48.001,41.171,47.295,40.512,42.896,36.781z M17.5,33.003C8.953,33.003,2,26.049,2,17.501C2,8.954,8.953,2,17.5,2 s15.501,6.954,15.501,15.501C33.001,26.049,26.047,33.003,17.5,33.003z M42.117,45.905c-0.691-0.62-2.34-2.564-3.814-4.303 c-2.551-3.009-5.894-6.941-8.969-9.847c0.832-0.746,1.674-1.588,2.42-2.419c2.906,3.075,6.84,6.418,9.849,8.97 c1.739,1.475,3.683,3.123,4.302,3.814C45.35,43.085,43.084,45.35,42.117,45.905z"/> 
</defs>

<use x="0" y="0" xlink:href="#i-1853"/>

</svg>